<mxfile host="Electron" modified="2023-05-31T22:43:21.715Z" agent="Mozilla/5.0 (Windows NT 10.0; Win64; x64) AppleWebKit/537.36 (KHTML, like Gecko) draw.io/21.2.8 Chrome/112.0.5615.165 Electron/24.2.0 Safari/537.36" etag="Ftntrxr1dEWr47Nsn2vY" version="21.2.8" type="device">
  <diagram id="C5RBs43oDa-KdzZeNtuy" name="Page-1">
    <mxGraphModel dx="1358" dy="662" grid="1" gridSize="10" guides="1" tooltips="1" connect="1" arrows="1" fold="1" page="1" pageScale="1" pageWidth="827" pageHeight="1169" math="0" shadow="0">
      <root>
        <mxCell id="WIyWlLk6GJQsqaUBKTNV-0" />
        <mxCell id="WIyWlLk6GJQsqaUBKTNV-1" parent="WIyWlLk6GJQsqaUBKTNV-0" />
        <mxCell id="NG1cSbL3h6DeOi_oPasS-48" value="" style="swimlane;startSize=0;" vertex="1" parent="WIyWlLk6GJQsqaUBKTNV-1">
          <mxGeometry x="400" y="40" width="280" height="440" as="geometry" />
        </mxCell>
        <mxCell id="NG1cSbL3h6DeOi_oPasS-50" value="position_store.v" style="text;html=1;strokeColor=none;fillColor=none;align=center;verticalAlign=middle;whiteSpace=wrap;rounded=0;" vertex="1" parent="NG1cSbL3h6DeOi_oPasS-48">
          <mxGeometry width="100" height="30" as="geometry" />
        </mxCell>
        <mxCell id="NG1cSbL3h6DeOi_oPasS-47" value="" style="swimlane;startSize=0;" vertex="1" parent="WIyWlLk6GJQsqaUBKTNV-1">
          <mxGeometry x="80" y="40" width="280" height="760" as="geometry" />
        </mxCell>
        <mxCell id="NG1cSbL3h6DeOi_oPasS-49" value="trigger.v" style="text;html=1;strokeColor=none;fillColor=none;align=center;verticalAlign=middle;whiteSpace=wrap;rounded=0;" vertex="1" parent="NG1cSbL3h6DeOi_oPasS-47">
          <mxGeometry width="70" height="30" as="geometry" />
        </mxCell>
        <mxCell id="NG1cSbL3h6DeOi_oPasS-11" style="edgeStyle=orthogonalEdgeStyle;rounded=0;orthogonalLoop=1;jettySize=auto;html=1;exitX=0.5;exitY=1;exitDx=0;exitDy=0;entryX=0.5;entryY=0;entryDx=0;entryDy=0;" edge="1" parent="WIyWlLk6GJQsqaUBKTNV-1" source="NG1cSbL3h6DeOi_oPasS-0" target="NG1cSbL3h6DeOi_oPasS-1">
          <mxGeometry relative="1" as="geometry" />
        </mxCell>
        <mxCell id="NG1cSbL3h6DeOi_oPasS-0" value="IDLE" style="ellipse;whiteSpace=wrap;html=1;" vertex="1" parent="WIyWlLk6GJQsqaUBKTNV-1">
          <mxGeometry x="130" y="80" width="120" height="80" as="geometry" />
        </mxCell>
        <mxCell id="NG1cSbL3h6DeOi_oPasS-24" style="edgeStyle=orthogonalEdgeStyle;rounded=0;orthogonalLoop=1;jettySize=auto;html=1;exitX=0.5;exitY=1;exitDx=0;exitDy=0;entryX=0.5;entryY=0;entryDx=0;entryDy=0;" edge="1" parent="WIyWlLk6GJQsqaUBKTNV-1" source="NG1cSbL3h6DeOi_oPasS-1" target="NG1cSbL3h6DeOi_oPasS-2">
          <mxGeometry relative="1" as="geometry" />
        </mxCell>
        <mxCell id="NG1cSbL3h6DeOi_oPasS-25" style="edgeStyle=orthogonalEdgeStyle;rounded=0;orthogonalLoop=1;jettySize=auto;html=1;exitX=0.5;exitY=1;exitDx=0;exitDy=0;entryX=0;entryY=0.5;entryDx=0;entryDy=0;curved=1;" edge="1" parent="WIyWlLk6GJQsqaUBKTNV-1" source="NG1cSbL3h6DeOi_oPasS-1" target="NG1cSbL3h6DeOi_oPasS-6">
          <mxGeometry relative="1" as="geometry" />
        </mxCell>
        <mxCell id="NG1cSbL3h6DeOi_oPasS-30" style="edgeStyle=orthogonalEdgeStyle;curved=1;rounded=0;orthogonalLoop=1;jettySize=auto;html=1;exitX=0.5;exitY=1;exitDx=0;exitDy=0;entryX=0;entryY=0.5;entryDx=0;entryDy=0;strokeColor=#FF0000;" edge="1" parent="WIyWlLk6GJQsqaUBKTNV-1" source="NG1cSbL3h6DeOi_oPasS-1" target="NG1cSbL3h6DeOi_oPasS-8">
          <mxGeometry relative="1" as="geometry" />
        </mxCell>
        <mxCell id="NG1cSbL3h6DeOi_oPasS-1" value="FIFO_CHECK" style="ellipse;whiteSpace=wrap;html=1;" vertex="1" parent="WIyWlLk6GJQsqaUBKTNV-1">
          <mxGeometry x="130" y="200" width="120" height="80" as="geometry" />
        </mxCell>
        <mxCell id="NG1cSbL3h6DeOi_oPasS-37" style="edgeStyle=orthogonalEdgeStyle;curved=1;rounded=0;orthogonalLoop=1;jettySize=auto;html=1;exitX=0.5;exitY=1;exitDx=0;exitDy=0;" edge="1" parent="WIyWlLk6GJQsqaUBKTNV-1" source="NG1cSbL3h6DeOi_oPasS-2" target="NG1cSbL3h6DeOi_oPasS-3">
          <mxGeometry relative="1" as="geometry" />
        </mxCell>
        <mxCell id="NG1cSbL3h6DeOi_oPasS-2" value="WAIT" style="ellipse;whiteSpace=wrap;html=1;" vertex="1" parent="WIyWlLk6GJQsqaUBKTNV-1">
          <mxGeometry x="130" y="320" width="120" height="80" as="geometry" />
        </mxCell>
        <mxCell id="NG1cSbL3h6DeOi_oPasS-39" style="edgeStyle=orthogonalEdgeStyle;curved=1;rounded=0;orthogonalLoop=1;jettySize=auto;html=1;exitX=0.5;exitY=1;exitDx=0;exitDy=0;entryX=0.5;entryY=0;entryDx=0;entryDy=0;" edge="1" parent="WIyWlLk6GJQsqaUBKTNV-1" source="NG1cSbL3h6DeOi_oPasS-3" target="NG1cSbL3h6DeOi_oPasS-4">
          <mxGeometry relative="1" as="geometry" />
        </mxCell>
        <mxCell id="NG1cSbL3h6DeOi_oPasS-3" value="WAIT1" style="ellipse;whiteSpace=wrap;html=1;" vertex="1" parent="WIyWlLk6GJQsqaUBKTNV-1">
          <mxGeometry x="130" y="440" width="120" height="80" as="geometry" />
        </mxCell>
        <mxCell id="NG1cSbL3h6DeOi_oPasS-42" style="edgeStyle=orthogonalEdgeStyle;curved=1;rounded=0;orthogonalLoop=1;jettySize=auto;html=1;exitX=0.5;exitY=1;exitDx=0;exitDy=0;entryX=0.5;entryY=0;entryDx=0;entryDy=0;" edge="1" parent="WIyWlLk6GJQsqaUBKTNV-1" source="NG1cSbL3h6DeOi_oPasS-4" target="NG1cSbL3h6DeOi_oPasS-5">
          <mxGeometry relative="1" as="geometry" />
        </mxCell>
        <mxCell id="NG1cSbL3h6DeOi_oPasS-4" value="STORE" style="ellipse;whiteSpace=wrap;html=1;" vertex="1" parent="WIyWlLk6GJQsqaUBKTNV-1">
          <mxGeometry x="130" y="560" width="120" height="80" as="geometry" />
        </mxCell>
        <mxCell id="NG1cSbL3h6DeOi_oPasS-5" value="STOP" style="ellipse;whiteSpace=wrap;html=1;" vertex="1" parent="WIyWlLk6GJQsqaUBKTNV-1">
          <mxGeometry x="130" y="680" width="120" height="80" as="geometry" />
        </mxCell>
        <mxCell id="NG1cSbL3h6DeOi_oPasS-20" style="edgeStyle=orthogonalEdgeStyle;rounded=0;orthogonalLoop=1;jettySize=auto;html=1;exitX=0.5;exitY=1;exitDx=0;exitDy=0;" edge="1" parent="WIyWlLk6GJQsqaUBKTNV-1" source="NG1cSbL3h6DeOi_oPasS-6" target="NG1cSbL3h6DeOi_oPasS-8">
          <mxGeometry relative="1" as="geometry" />
        </mxCell>
        <mxCell id="NG1cSbL3h6DeOi_oPasS-22" style="edgeStyle=orthogonalEdgeStyle;rounded=0;orthogonalLoop=1;jettySize=auto;html=1;exitX=0.5;exitY=1;exitDx=0;exitDy=0;entryX=1;entryY=0.5;entryDx=0;entryDy=0;curved=1;" edge="1" parent="WIyWlLk6GJQsqaUBKTNV-1" source="NG1cSbL3h6DeOi_oPasS-6" target="NG1cSbL3h6DeOi_oPasS-2">
          <mxGeometry relative="1" as="geometry" />
        </mxCell>
        <mxCell id="NG1cSbL3h6DeOi_oPasS-6" value="IDLE" style="ellipse;whiteSpace=wrap;html=1;strokeColor=#00FF00;" vertex="1" parent="WIyWlLk6GJQsqaUBKTNV-1">
          <mxGeometry x="480" y="80" width="120" height="80" as="geometry" />
        </mxCell>
        <mxCell id="NG1cSbL3h6DeOi_oPasS-21" style="edgeStyle=orthogonalEdgeStyle;rounded=0;orthogonalLoop=1;jettySize=auto;html=1;exitX=1;exitY=0.5;exitDx=0;exitDy=0;entryX=1;entryY=0.5;entryDx=0;entryDy=0;curved=1;" edge="1" parent="WIyWlLk6GJQsqaUBKTNV-1" source="NG1cSbL3h6DeOi_oPasS-8" target="NG1cSbL3h6DeOi_oPasS-6">
          <mxGeometry relative="1" as="geometry">
            <Array as="points">
              <mxPoint x="640" y="360" />
              <mxPoint x="640" y="120" />
            </Array>
          </mxGeometry>
        </mxCell>
        <mxCell id="NG1cSbL3h6DeOi_oPasS-35" style="edgeStyle=orthogonalEdgeStyle;curved=1;rounded=0;orthogonalLoop=1;jettySize=auto;html=1;exitX=0.5;exitY=1;exitDx=0;exitDy=0;entryX=1;entryY=0.5;entryDx=0;entryDy=0;strokeColor=#FF0000;" edge="1" parent="WIyWlLk6GJQsqaUBKTNV-1" source="NG1cSbL3h6DeOi_oPasS-8" target="NG1cSbL3h6DeOi_oPasS-2">
          <mxGeometry relative="1" as="geometry">
            <Array as="points">
              <mxPoint x="540" y="420" />
              <mxPoint x="250" y="420" />
            </Array>
          </mxGeometry>
        </mxCell>
        <mxCell id="NG1cSbL3h6DeOi_oPasS-8" value="STORE_WRITE_A" style="ellipse;whiteSpace=wrap;html=1;strokeColor=#00FF00;" vertex="1" parent="WIyWlLk6GJQsqaUBKTNV-1">
          <mxGeometry x="480" y="320" width="120" height="80" as="geometry" />
        </mxCell>
        <mxCell id="NG1cSbL3h6DeOi_oPasS-12" value="10μS" style="text;html=1;strokeColor=none;fillColor=none;align=center;verticalAlign=middle;whiteSpace=wrap;rounded=0;" vertex="1" parent="WIyWlLk6GJQsqaUBKTNV-1">
          <mxGeometry x="190" y="160" width="30" height="30" as="geometry" />
        </mxCell>
        <mxCell id="NG1cSbL3h6DeOi_oPasS-26" value="是否可写？" style="text;html=1;strokeColor=none;fillColor=none;align=center;verticalAlign=middle;whiteSpace=wrap;rounded=0;" vertex="1" parent="WIyWlLk6GJQsqaUBKTNV-1">
          <mxGeometry x="290" y="200" width="70" height="30" as="geometry" />
        </mxCell>
        <mxCell id="NG1cSbL3h6DeOi_oPasS-29" value="可写" style="text;html=1;strokeColor=none;fillColor=none;align=center;verticalAlign=middle;whiteSpace=wrap;rounded=0;" vertex="1" parent="WIyWlLk6GJQsqaUBKTNV-1">
          <mxGeometry x="410" y="260" width="70" height="30" as="geometry" />
        </mxCell>
        <mxCell id="NG1cSbL3h6DeOi_oPasS-33" value="是否可写？" style="text;html=1;strokeColor=none;fillColor=none;align=center;verticalAlign=middle;whiteSpace=wrap;rounded=0;" vertex="1" parent="WIyWlLk6GJQsqaUBKTNV-1">
          <mxGeometry x="290" y="320" width="70" height="30" as="geometry" />
        </mxCell>
        <mxCell id="NG1cSbL3h6DeOi_oPasS-36" value="&lt;font color=&quot;#ff0000&quot;&gt;可写&lt;/font&gt;" style="text;html=1;strokeColor=none;fillColor=none;align=center;verticalAlign=middle;whiteSpace=wrap;rounded=0;" vertex="1" parent="WIyWlLk6GJQsqaUBKTNV-1">
          <mxGeometry x="410" y="390" width="70" height="30" as="geometry" />
        </mxCell>
        <mxCell id="NG1cSbL3h6DeOi_oPasS-38" value="如果可写" style="text;html=1;strokeColor=none;fillColor=none;align=center;verticalAlign=middle;whiteSpace=wrap;rounded=0;" vertex="1" parent="WIyWlLk6GJQsqaUBKTNV-1">
          <mxGeometry x="190" y="400" width="60" height="30" as="geometry" />
        </mxCell>
        <mxCell id="NG1cSbL3h6DeOi_oPasS-40" value="等待读出FIFO" style="text;html=1;strokeColor=none;fillColor=none;align=center;verticalAlign=middle;whiteSpace=wrap;rounded=0;" vertex="1" parent="WIyWlLk6GJQsqaUBKTNV-1">
          <mxGeometry x="190" y="520" width="80" height="30" as="geometry" />
        </mxCell>
        <mxCell id="NG1cSbL3h6DeOi_oPasS-41" value="数据全部转存完毕" style="text;html=1;strokeColor=none;fillColor=none;align=center;verticalAlign=middle;whiteSpace=wrap;rounded=0;" vertex="1" parent="WIyWlLk6GJQsqaUBKTNV-1">
          <mxGeometry x="190" y="640" width="60" height="30" as="geometry" />
        </mxCell>
        <mxCell id="NG1cSbL3h6DeOi_oPasS-44" style="edgeStyle=orthogonalEdgeStyle;curved=1;rounded=0;orthogonalLoop=1;jettySize=auto;html=1;exitX=1;exitY=0;exitDx=0;exitDy=0;entryX=1;entryY=1;entryDx=0;entryDy=0;" edge="1" parent="WIyWlLk6GJQsqaUBKTNV-1" source="NG1cSbL3h6DeOi_oPasS-4" target="NG1cSbL3h6DeOi_oPasS-4">
          <mxGeometry relative="1" as="geometry">
            <Array as="points">
              <mxPoint x="232" y="560" />
              <mxPoint x="280" y="560" />
              <mxPoint x="280" y="640" />
              <mxPoint x="232" y="640" />
            </Array>
          </mxGeometry>
        </mxCell>
        <mxCell id="NG1cSbL3h6DeOi_oPasS-45" value="还有有效数据" style="text;html=1;strokeColor=none;fillColor=none;align=center;verticalAlign=middle;whiteSpace=wrap;rounded=0;" vertex="1" parent="WIyWlLk6GJQsqaUBKTNV-1">
          <mxGeometry x="280" y="590" width="60" height="30" as="geometry" />
        </mxCell>
      </root>
    </mxGraphModel>
  </diagram>
</mxfile>
